# xmcd CD database file
#
# Track frame offsets:
#	150
#	35879
#	53715
#	78327
#	98277
#	114575
#	134219
#	158954
#	173162
#	194183
#	209657
#	224107
#
# Disc length: 3260 seconds
#
# Revision: 2
# Processed by: cddbd v1.4PL0 Copyright (c) Steve Scherf et al.
# Submitted via: CDex 1.50
#
DISCID=bd0cba0c
DTITLE=Lajos Dudas - Seitenblicke
DYEAR=2003
DGENRE=Jazz
TTITLE0=Hungarian pictures !
TTITLE1=Hungarian pictures !I
TTITLE2=Tangaggogo
TTITLE3=Kukeri dance
TTITLE4=Wiegenlied
TTITLE5=Mazeppa
TTITLE6=Reni's Balld
TTITLE7=Rumpelstizchen
TTITLE8=When the day is new
TTITLE9=Sweet George Brown
TTITLE10=Bach's Gedenken
TTITLE11=Ain't misbehavin'
EXTD=YEAR: 2003
EXTT0=
EXTT1=
EXTT2=
EXTT3=
EXTT4=
EXTT5=
EXTT6=
EXTT7=
EXTT8=
EXTT9=
EXTT10=
EXTT11=
PLAYORDER=
